<?xml version="1.0" encoding="utf-8"?>
<!-- Generator: Adobe Illustrator 17.0.0, SVG Export Plug-In . SVG Version: 6.00 Build 0)  -->
<!DOCTYPE svg PUBLIC "-//W3C//DTD SVG 1.0//EN" "http://www.w3.org/TR/2001/REC-SVG-20010904/DTD/svg10.dtd">
<svg version="1.0" id="Layer_1" xmlns="http://www.w3.org/2000/svg" xmlns:xlink="http://www.w3.org/1999/xlink" x="0px" y="0px"
	 width="500px" height="500px" viewBox="0 0 500 500" enable-background="new 0 0 500 500" xml:space="preserve">
<polygon fill="#FFFFFF" stroke="#000000" stroke-width="10" stroke-miterlimit="10" points="73.256,-1.209 404.106,-3.581 
	397.129,496.419 65.698,498.791 "/>
<path fill="#FFFFFF" stroke="#000000" stroke-width="8" stroke-miterlimit="10" d="M414.535,296.465c0,0,18.605-15.116,30.233-2.907
	c11.628,12.209-5.233,21.512-5.233,21.512L250,456.349h-31.395l16.297-26.744l172.656-125c0,0-58.011,32.155-62.209,40.116
	C356.977,330.186,414.535,296.465,414.535,296.465z"/>
<path fill="#FFFFFF" stroke="#000000" stroke-width="10" stroke-miterlimit="10" d="M417.717,294.235
	c0,0,21.725-3.113,17.992,23.686"/>
<path fill="#FFFFFF" stroke="#000000" stroke-width="10" stroke-miterlimit="10" d="M265.983,407.102
	c0,0,14.179,1.661,19.447,22.837c50.712-37.8,50.712-37.8,50.712-37.8s-5.296-24.275-22.463-19.568
	C265.983,407.102,265.983,407.102,265.983,407.102z"/>
<line fill="none" stroke="#000000" stroke-width="10" stroke-miterlimit="10" x1="110.333" y1="53" x2="361" y2="53"/>
<line fill="none" stroke="#000000" stroke-width="10" stroke-miterlimit="10" x1="109.568" y1="97.667" x2="360.235" y2="97.667"/>
<line fill="none" stroke="#000000" stroke-width="10" stroke-miterlimit="10" x1="109.568" y1="131.667" x2="360.235" y2="131.667"/>
<line fill="none" stroke="#000000" stroke-width="10" stroke-miterlimit="10" x1="110.333" y1="168.333" x2="361" y2="168.333"/>
<line fill="none" stroke="#000000" stroke-width="10" stroke-miterlimit="10" x1="106.333" y1="213.667" x2="274.333" y2="213.667"/>
</svg>
