<?xml version="1.0" encoding="utf-8"?>
<!-- Generator: Adobe Illustrator 17.0.0, SVG Export Plug-In . SVG Version: 6.00 Build 0)  -->
<!DOCTYPE svg PUBLIC "-//W3C//DTD SVG 1.0//EN" "http://www.w3.org/TR/2001/REC-SVG-20010904/DTD/svg10.dtd">
<svg version="1.0" id="Layer_1" xmlns="http://www.w3.org/2000/svg" xmlns:xlink="http://www.w3.org/1999/xlink" x="0px" y="0px"
	 width="500px" height="500px" viewBox="0 0 500 500" enable-background="new 0 0 500 500" xml:space="preserve">
<g>
	<g id="XMLID_1_">
		<g>
			<path fill="#FFFFFF" d="M480.946,394.224v2.989c-0.155,0.879-0.256,1.778-0.466,2.647c-0.558,2.315-0.823,4.806-1.81,6.896
				c-3.391,7.208-8.838,12.424-15.273,16.419c-9.77,6.075-20.409,9.924-31.304,12.864c-17.631,4.757-35.572,7.57-53.641,9.631
				c-23.873,2.715-47.81,4.151-71.793,4.893c-2.779,0.088-5.557,0.01-7.897,0.01c-0.923,4.454-1.654,8.283-2.504,12.082
				c-2.056,9.123-6.965,16.38-13.737,22.026c-3.601,3.008-7.751,5.519-12.001,7.326c-4.405,1.875-9.231,2.627-13.874,3.878h-8.39
				c-4.57-1.221-9.213-2.198-13.682-3.741c-5.045-1.748-9.46-4.825-13.454-8.566c-6.078-5.685-10.529-12.473-12.476-20.941
				c-0.859-3.721-1.581-7.482-2.449-11.662c-0.366-0.029-1.261-0.137-2.157-0.186c-15.821-0.772-31.679-1.192-47.481-2.393
				c-15.163-1.143-30.335-2.657-45.406-4.835c-12.96-1.885-25.856-4.581-38.643-7.599c-10.968-2.588-21.542-6.7-31.295-12.834
				c-6.279-3.946-11.873-8.957-14.852-16.155c-3.144-7.609-3.226-15.442,0.832-23.09c2.669-5.02,6.279-8.869,10.556-12.248
				c2.02-1.602,3.61-3.819,5.456-5.694c6.306-6.427,12.512-12.991,19.011-19.213c6.654-6.388,13.673-12.336,20.409-18.627
				c7.193-6.73,14.276-13.577,21.314-20.482c3.93-3.868,6.946-8.498,9.734-13.391c7.019-12.336,9.24-26.03,11.077-40.007
				c2.632-20.053,2.011-40.193,2.258-60.314c0.201-16.527,0.411-33.073,2.861-49.423c1.197-7.97,3.089-15.843,5.082-23.647
				c1.142-4.503,2.861-8.888,4.734-13.118c5.082-11.447,11.991-21.527,21.232-29.527c13.024-11.272,28.205-17.64,44.456-21.293
				c4.625-1.045,9.313-1.729,13.975-2.588c0.512-0.098,1.005-0.283,1.398-0.391c-0.877-3.887-2.331-7.589-2.44-11.35
				c-0.32-10.647,3.501-19.467,11.269-26.362c5.301-4.718,11.342-7.306,18.069-8.361c0.219-0.029,0.411-0.215,0.612-0.332h8.39
				c4.579,1.68,9.249,3.126,13.691,5.138c2.358,1.055,4.561,2.833,6.416,4.747c3.628,3.741,6.608,7.99,8.144,13.323
				c1.334,4.62,2.523,9.23,1.572,14.055c-0.594,3.028-1.636,5.958-2.532,9.142c3.583,0.645,7.083,1.231,10.566,1.885
				c11.653,2.178,22.904,5.773,33.506,11.418c4.131,2.207,8.134,4.806,11.863,7.707c7.092,5.499,13.28,11.985,18.216,19.857
				c3.93,6.251,7.138,12.786,9.697,19.808c3.053,8.38,4.707,17.064,6.389,25.815c3.446,17.913,3.299,36.071,3.702,54.2
				c0.356,16.009,0.055,32.076,1.152,48.027c0.795,11.74,2.906,23.452,5.328,34.948c1.673,7.921,5.374,15.286,9.944,21.85
				c4.963,7.13,10.794,13.469,17.32,19.056c3.857,3.292,7.568,6.788,11.324,10.217c8.372,7.658,16.781,15.286,25.089,23.041
				c3.766,3.516,7.321,7.306,10.968,10.979c4.826,4.854,9.844,9.504,14.386,14.641c3.546,4.024,6.434,8.673,7.092,14.446
				C480.571,392.622,480.79,393.423,480.946,394.224z M266.133,469.228c5.685-3.966,9.03-9.846,8.719-17.679h-44.684
				c-0.631,6.603,2.952,14.124,8.555,17.747C247.845,475.206,257.195,475.45,266.133,469.228z M263.739,41.004
				c0.137-6.505-5.182-11.223-11.187-11.281c-5.923-0.059-11.498,4.581-11.333,10.832c-0.356,6.613,5.137,11.213,11.132,11.281
				C258.236,51.905,263.602,47.392,263.739,41.004z"/>
			<path fill="#FFFFFF" d="M274.853,451.549c0.311,7.833-3.034,13.713-8.719,17.679c-8.939,6.222-18.289,5.978-27.41,0.068
				c-5.603-3.624-9.185-11.145-8.555-17.747H274.853z"/>
			<path fill="#FFFFFF" d="M252.552,29.723c6.005,0.059,11.324,4.776,11.187,11.281c-0.137,6.388-5.502,10.9-11.388,10.832
				c-5.996-0.068-11.489-4.669-11.132-11.281C241.054,34.304,246.629,29.664,252.552,29.723z"/>
		</g>
		<g>
			<path fill="none" stroke="#1B1B1C" stroke-width="10" stroke-miterlimit="10" d="M480.48,391.812
				c-0.658-5.773-3.546-10.422-7.092-14.446c-4.542-5.138-9.56-9.787-14.386-14.641c-3.647-3.673-7.202-7.462-10.968-10.979
				c-8.308-7.755-16.717-15.384-25.089-23.041c-3.756-3.428-7.467-6.925-11.324-10.217c-6.526-5.587-12.357-11.926-17.32-19.056
				c-4.57-6.564-8.271-13.928-9.944-21.85c-2.422-11.496-4.533-23.207-5.328-34.948c-1.097-15.95-0.795-32.018-1.152-48.027
				c-0.402-18.128-0.256-36.286-3.702-54.2c-1.682-8.752-3.336-17.435-6.389-25.815c-2.559-7.023-5.767-13.557-9.697-19.808
				c-4.935-7.873-11.123-14.358-18.216-19.857c-3.729-2.901-7.732-5.499-11.863-7.707c-10.602-5.646-21.853-9.24-33.506-11.418
				c-3.482-0.654-6.983-1.24-10.566-1.885c0.896-3.184,1.938-6.114,2.532-9.142c0.951-4.825-0.238-9.435-1.572-14.055
				c-1.535-5.333-4.515-9.582-8.144-13.323c-1.855-1.914-4.058-3.692-6.416-4.747c-4.442-2.012-9.112-3.458-13.691-5.138h-8.39
				c-0.201,0.117-0.393,0.303-0.612,0.332c-6.727,1.055-12.768,3.643-18.069,8.361c-7.769,6.896-11.589,15.716-11.269,26.362
				c0.11,3.76,1.563,7.462,2.44,11.35c-0.393,0.107-0.887,0.293-1.398,0.391c-4.661,0.86-9.35,1.543-13.975,2.588
				c-16.251,3.653-31.432,10.021-44.456,21.293c-9.24,8-16.15,18.08-21.232,29.527c-1.874,4.229-3.592,8.615-4.734,13.118
				c-1.992,7.804-3.884,15.677-5.082,23.647c-2.449,16.351-2.66,32.897-2.861,49.423c-0.247,20.121,0.375,40.261-2.258,60.314
				c-1.837,13.977-4.058,27.671-11.077,40.007c-2.788,4.893-5.804,9.523-9.734,13.391c-7.038,6.906-14.121,13.753-21.314,20.482
				c-6.736,6.29-13.755,12.239-20.409,18.627c-6.498,6.222-12.704,12.786-19.011,19.213c-1.846,1.875-3.437,4.093-5.456,5.694
				c-4.277,3.38-7.888,7.228-10.556,12.248c-4.058,7.648-3.976,15.481-0.832,23.09c2.98,7.199,8.573,12.209,14.852,16.155
				c9.752,6.134,20.327,10.246,31.295,12.834c12.787,3.018,25.683,5.714,38.643,7.599c15.072,2.178,30.244,3.692,45.406,4.835
				c15.803,1.201,31.66,1.621,47.481,2.393c0.896,0.049,1.791,0.156,2.157,0.186c0.868,4.18,1.59,7.941,2.449,11.662
				c1.947,8.468,6.398,15.257,12.476,20.941c3.994,3.741,8.409,6.818,13.454,8.566c4.469,1.543,9.112,2.52,13.682,3.741h8.39
				c4.643-1.25,9.469-2.002,13.874-3.878c4.25-1.807,8.399-4.317,12.001-7.326c6.773-5.646,11.681-12.903,13.737-22.026
				c0.85-3.8,1.581-7.628,2.504-12.082c2.34,0,5.118,0.078,7.897-0.01c23.983-0.742,47.92-2.178,71.793-4.893
				c18.069-2.061,36.011-4.874,53.641-9.631c10.895-2.94,21.533-6.788,31.304-12.864c6.434-3.995,11.882-9.211,15.273-16.419
				c0.987-2.09,1.252-4.581,1.81-6.896c0.21-0.869,0.311-1.768,0.466-2.647v-2.989C480.79,393.423,480.571,392.622,480.48,391.812z"
				/>
			<path fill="none" stroke="#1B1B1C" stroke-width="10" stroke-miterlimit="10" d="M266.133,469.228
				c-8.939,6.222-18.289,5.978-27.41,0.068c-5.603-3.624-9.185-11.145-8.555-17.747h44.684
				C275.163,459.383,271.818,465.263,266.133,469.228z"/>
			<path fill="none" stroke="#1B1B1C" stroke-width="10" stroke-miterlimit="10" d="M252.552,29.723
				c6.005,0.059,11.324,4.776,11.187,11.281c-0.137,6.388-5.502,10.9-11.388,10.832c-5.996-0.068-11.489-4.669-11.132-11.281
				C241.054,34.304,246.629,29.664,252.552,29.723z"/>
		</g>
	</g>
</g>
</svg>
