<?xml version="1.0" encoding="utf-8"?>
<!-- Generator: Adobe Illustrator 17.0.0, SVG Export Plug-In . SVG Version: 6.00 Build 0)  -->
<!DOCTYPE svg PUBLIC "-//W3C//DTD SVG 1.0//EN" "http://www.w3.org/TR/2001/REC-SVG-20010904/DTD/svg10.dtd">
<svg version="1.0" id="Layer_1" xmlns="http://www.w3.org/2000/svg" xmlns:xlink="http://www.w3.org/1999/xlink" x="0px" y="0px"
	 width="500px" height="500px" viewBox="0 0 500 500" enable-background="new 0 0 500 500" xml:space="preserve">
<ellipse fill="#FFFFFF" stroke="#000000" stroke-width="10" stroke-miterlimit="10" cx="126.173" cy="118.308" rx="72.721" ry="90.012"/>
<path fill="#FFFFFF" stroke="#000000" stroke-width="10" stroke-miterlimit="10" d="M30.18,472.961
	c0,0,3.878-262.836,95.992-264.037S234.77,460.959,232.831,472.961C230.891,484.963,30.18,472.961,30.18,472.961z"/>
<ellipse fill="#FFFFFF" stroke="#000000" stroke-width="10" stroke-miterlimit="10" cx="373.376" cy="118.308" rx="72.721" ry="90.012"/>
<path fill="#FFFFFF" stroke="#000000" stroke-width="10" stroke-miterlimit="10" d="M277.384,472.961
	c0,0,3.878-262.836,95.992-264.037s108.597,252.035,106.658,264.037S277.384,472.961,277.384,472.961z"/>
<ellipse stroke="#000000" stroke-width="10" stroke-miterlimit="10" cx="154.242" cy="97.673" rx="7.272" ry="9.001"/>
<ellipse stroke="#000000" stroke-width="10" stroke-miterlimit="10" cx="346.227" cy="97.673" rx="7.272" ry="9.001"/>
<path stroke="#000000" stroke-width="3" stroke-miterlimit="10" d="M131.578,146.88c0,0,13.453,25.203,29.936,24.003
	s20.362-24.003,20.362-24.003H131.578z"/>
<path d="M321.078,146.88c0,0,13.453,25.203,29.936,24.003c16.484-1.2,20.362-24.003,20.362-24.003H321.078z"/>
</svg>
