<?xml version="1.0" encoding="utf-8"?>
<!-- Generator: Adobe Illustrator 17.0.0, SVG Export Plug-In . SVG Version: 6.00 Build 0)  -->
<!DOCTYPE svg PUBLIC "-//W3C//DTD SVG 1.0//EN" "http://www.w3.org/TR/2001/REC-SVG-20010904/DTD/svg10.dtd">
<svg version="1.0" id="Layer_1" xmlns="http://www.w3.org/2000/svg" xmlns:xlink="http://www.w3.org/1999/xlink" x="0px" y="0px"
	 width="414.826px" height="224.403px" viewBox="0 0 414.826 224.403" enable-background="new 0 0 414.826 224.403"
	 xml:space="preserve">
<polygon fill="#FFFFFF" points="0,150 19.638,150 48.837,92.636 78.553,147.674 100,146.512 48.579,50 "/>
<polygon fill="#FFFFFF" points="42.892,120.073 50,144.186 55.53,119.264 "/>
<polyline fill="#FFFFFF" points="112.364,50 112.364,147.093 131.55,147.093 128.643,75.581 158.294,144.186 177.48,144.186 
	180.669,50 161.201,50 163.527,119.264 129.806,50 "/>
<polygon fill="#FFFFFF" points="203.779,50 206.105,144.186 221.802,144.186 221.802,50 "/>
<polyline fill="#FFFFFF" points="242.733,50 305.523,50 289.853,65.274 257.772,65.17 257.267,80.814 305.523,80.814 
	293.895,97.093 257.267,97.093 258.43,144.186 242.733,144.186 "/>
<polygon fill="#FFFFFF" points="315.616,50 317.942,144.186 333.64,144.186 333.64,50 "/>
<polygon fill="#FFFFFF" points="414.826,50 349.709,50 349.709,144.186 414.826,144.186 414.826,84.593 382.267,84.264 
	382.267,97.093 401.017,97.093 402.18,123.759 365.989,123.547 365.993,62.193 403.201,61.984 "/>
</svg>
